<svg aria-hidden="true" style="position: absolute; width: 0; height: 0; overflow: hidden;" version="1.1" xmlns="http://www.w3.org/2000/svg" xmlns:xlink="http://www.w3.org/1999/xlink">
<defs>
<symbol id="icon-ukraine" viewBox="0 0 32 32">
<path fill="#ffe62e" style="fill: var(--color1, #ffe62e)" d="M16 31c8.3 0 15-6.7 15-15h-30c0 8.3 6.7 15 15 15z"></path>
<path fill="#428bc1" style="fill: var(--color2, #428bc1)" d="M16 1c-8.3 0-15 6.7-15 15h30c0-8.3-6.7-15-15-15z"></path>
</symbol>
<symbol id="icon-mail" viewBox="0 0 32 32">
<path d="M28 5h-24c-2.209 0-4 1.792-4 4v13c0 2.209 1.791 4 4 4h24c2.209 0 4-1.791 4-4v-13c0-2.208-1.791-4-4-4zM2 10.25l6.999 5.25-6.999 5.25v-10.5zM30 22c0 1.104-0.898 2-2 2h-24c-1.103 0-2-0.896-2-2l7.832-5.875 4.368 3.277c0.533 0.398 1.166 0.6 1.8 0.6 0.633 0 1.266-0.201 1.799-0.6l4.369-3.277 7.832 5.875zM30 20.75l-7-5.25 7-5.25v10.5zM17.199 18.602c-0.349 0.262-0.763 0.4-1.199 0.4s-0.851-0.139-1.2-0.4l-12.8-9.602c0-1.103 0.897-2 2-2h24c1.102 0 2 0.897 2 2l-12.801 9.602z"></path>
</symbol>
<symbol id="icon-phone" viewBox="0 0 32 32">
<path d="M15.331 19.76c-0.026-0.018-3.034-5.075-3.044-5.14-0.622-1.359-1.124-2.749-0.078-3.366l-4.341-7.32c-1.125 0.841-4.307 5.405 1.649 15.748 6.274 10.9 12.245 10.447 13.442 9.709l-4.23-7.145c-1 0.588-1.842-0.381-3.398-2.486zM25.862 26.617l0.001-0.006c0 0-3.303-5.566-3.305-5.568-0.262-0.441-0.825-0.58-1.264-0.324l-2.024 1.197 4.242 7.166c0 0 2.024-1.191 2.023-1.195h0.004c0.465-0.276 0.572-0.846 0.323-1.27zM14.786 9.736v-0.004c0.465-0.275 0.574-0.845 0.325-1.265l0.002-0.006c0 0-3.398-5.729-3.4-5.73-0.261-0.443-0.826-0.58-1.263-0.324l-2.024 1.197 4.336 7.324c0 0 2.023-1.189 2.024-1.192z"></path>
</symbol>
<symbol id="icon-location" viewBox="0 0 20 20">
<path d="M19.367 18.102l-1.367-4.102h-1.5l0.833 4h-14.666l0.833-4h-1.5l-1.368 4.102c-0.347 1.044 0.268 1.898 1.368 1.898h16c1.1 0 1.715-0.854 1.367-1.898zM15 5c0-2.761-2.238-5-5-5s-5 2.239-5 5c0 4.775 5 10 5 10s5-5.225 5-10zM7.3 5.060c0-1.491 1.208-2.699 2.7-2.699s2.7 1.208 2.7 2.699c0 1.492-1.209 2.7-2.7 2.7s-2.7-1.209-2.7-2.7z"></path>
</symbol>
<symbol id="icon-logo" viewBox="0 0 26 32">
<path fill="#585b2e" style="fill: var(--color1, #585b2e)" d="M0.345 3.234c0.025 9.635 0.188 12.767 1.259 16.272 1.945 6.368 5.976 9.418 11.196 12.494 5.22-3.076 9.252-6.126 11.196-12.494 1.070-3.505 1.234-6.637 1.259-16.272 0 0-4.117-3.234-12.455-3.234s-12.455 3.234-12.455 3.234z"></path>
<path fill="#e7e9df" style="fill: var(--color2, #e7e9df)" d="M3.938 5.825c0.018 7.069 0.134 10.057 0.896 12.628 0.086 0.289 0.177 0.569 0.274 0.84l-1.188 1.76h-1.778l0.168 0.431h1.839l1.146-1.697c1.507 3.786 4.164 5.802 7.506 7.832 3.337-2.027 5.992-4.040 7.5-7.816l1.204 1.681h1.787l0.168-0.431h-1.734l-1.242-1.734c0.1-0.279 0.195-0.568 0.283-0.866 0.762-2.571 0.878-5.559 0.896-12.628 0 0-2.834-1.682-8.862-1.682s-8.862 1.682-8.862 1.682z"></path>
<path fill="#1b1c20" style="fill: var(--color3, #1b1c20)" d="M4.369 6.084c0.017 6.786 0.128 9.761 0.852 12.23 1.317 4.485 4.045 6.634 7.579 8.8 3.534-2.166 6.263-4.315 7.579-8.8 0.725-2.469 0.835-5.443 0.852-12.23 0 0-2.787-1.509-8.431-1.509s-8.431 1.509-8.431 1.509z"></path>
<path fill="#c33028" style="fill: var(--color4, #c33028)" d="M20.97 15.080h-16.339c-0.205-2.063-0.251-4.801-0.262-8.996 0 0 2.787-1.509 8.431-1.509s8.431 1.509 8.431 1.509c-0.010 4.195-0.057 6.934-0.262 8.996z"></path>
<path fill="#e7e9df" style="fill: var(--color2, #e7e9df)" d="M11.802 15.042l-5.326-7.063 1.344-0.261c0.471-0.091 0.952 0.096 1.238 0.481l2.744 3.704v-4.335c0 0 0.259-0.216 0.999-0.216s0.999 0.216 0.999 0.216v4.373l2.781-3.744c0.286-0.385 0.767-0.571 1.237-0.48l1.345 0.261-5.363 7.1v8.394c0 0-0.309 0.192-1.001 0.192s-0.998-0.192-0.998-0.192v-8.431z"></path>
<path fill="#fff" style="fill: var(--color5, #fff)" d="M3.855 2.777l0.497 1.389-0.387 0.138-0.385-1.078-0.399 0.143 0.073 0.229c0.064 0.201 0.106 0.368 0.123 0.502 0.019 0.133 0.010 0.246-0.027 0.337-0.038 0.090-0.114 0.155-0.228 0.196-0.053 0.019-0.115 0.032-0.187 0.040l-0.093-0.329c0.019-0.002 0.037-0.007 0.056-0.013 0.052-0.018 0.084-0.053 0.097-0.104s0.013-0.115-0.001-0.192c-0.015-0.078-0.041-0.177-0.079-0.296l-0.178-0.561 1.119-0.4z"></path>
<path fill="#fff" style="fill: var(--color5, #fff)" d="M5.948 3.362l0.088 0.31-1.14 0.324-0.403-1.419 1.113-0.316 0.088 0.31-0.716 0.203 0.068 0.239 0.631-0.179 0.085 0.3-0.631 0.179 0.074 0.26 0.742-0.211z"></path>
<path fill="#fff" style="fill: var(--color5, #fff)" d="M7.307 2.208l-0.652 0.144 0.247 1.117-0.401 0.089-0.319-1.441 1.056-0.234 0.069 0.324z"></path>
<path fill="#fff" style="fill: var(--color5, #fff)" d="M7.738 1.795l0.405-0.070 0.251 1.454-0.405 0.070-0.251-1.454z"></path>
<path fill="#fff" style="fill: var(--color5, #fff)" d="M9.691 3.026c-0.155 0.018-0.298 0.002-0.43-0.050-0.13-0.051-0.238-0.131-0.323-0.238-0.083-0.108-0.133-0.234-0.15-0.379s0.003-0.28 0.059-0.404c0.058-0.124 0.144-0.226 0.259-0.306 0.117-0.080 0.252-0.129 0.407-0.147s0.298-0.001 0.428 0.050c0.132 0.051 0.239 0.131 0.323 0.238 0.085 0.108 0.135 0.234 0.152 0.379s-0.004 0.28-0.061 0.404c-0.056 0.124-0.143 0.226-0.259 0.306-0.115 0.080-0.25 0.129-0.405 0.147zM9.651 2.683c0.074-0.009 0.139-0.034 0.195-0.076s0.098-0.096 0.125-0.163c0.027-0.068 0.036-0.144 0.027-0.226s-0.035-0.153-0.078-0.212c-0.042-0.060-0.096-0.104-0.16-0.132s-0.133-0.038-0.207-0.029c-0.074 0.009-0.139 0.034-0.195 0.076s-0.098 0.097-0.125 0.165c-0.028 0.067-0.037 0.141-0.027 0.224s0.036 0.154 0.078 0.214c0.042 0.059 0.095 0.102 0.159 0.13s0.133 0.038 0.207 0.029z"></path>
<path fill="#fff" style="fill: var(--color5, #fff)" d="M12.29 1.336l0.063 1.474-0.417 0.018-0.025-0.575-0.569 0.024 0.025 0.575-0.417 0.018-0.064-1.474 0.417-0.018 0.024 0.554 0.569-0.024-0.024-0.554 0.417-0.018z"></path>
<path fill="#fff" style="fill: var(--color5, #fff)" d="M13.732 2.098l0.309-0.403 0.356 0.014-0.301 0.404 0.268 0.428-0.356-0.014-0.276-0.428zM14.248 2.118l0.309-0.403 0.356 0.014-0.301 0.404 0.268 0.428-0.356-0.014-0.276-0.428z"></path>
<path fill="#fff" style="fill: var(--color5, #fff)" d="M15.978 3.030c-0.154-0.018-0.288-0.066-0.404-0.144-0.114-0.080-0.199-0.181-0.256-0.305s-0.076-0.259-0.060-0.406 0.067-0.274 0.15-0.382c0.083-0.108 0.189-0.187 0.318-0.237 0.13-0.052 0.272-0.069 0.426-0.051 0.134 0.015 0.252 0.053 0.354 0.113s0.184 0.138 0.245 0.236l-0.291 0.208c-0.082-0.125-0.19-0.196-0.326-0.211-0.080-0.009-0.153 0-0.22 0.028-0.065 0.028-0.119 0.072-0.162 0.132-0.041 0.059-0.066 0.13-0.075 0.212s-0.001 0.158 0.025 0.226c0.028 0.067 0.070 0.121 0.128 0.163 0.059 0.042 0.128 0.068 0.208 0.077 0.135 0.016 0.257-0.029 0.365-0.132l0.236 0.269c-0.081 0.081-0.179 0.139-0.292 0.175s-0.236 0.045-0.37 0.030z"></path>
<path fill="#fff" style="fill: var(--color5, #fff)" d="M18.254 2.577c0.081 0.043 0.138 0.098 0.171 0.164 0.035 0.066 0.045 0.142 0.029 0.228-0.024 0.129-0.093 0.221-0.207 0.277-0.113 0.055-0.261 0.066-0.445 0.032l-0.744-0.136 0.265-1.451 0.705 0.129c0.174 0.032 0.303 0.090 0.386 0.173 0.085 0.083 0.116 0.184 0.094 0.304-0.013 0.071-0.042 0.13-0.086 0.177-0.043 0.048-0.099 0.082-0.169 0.102zM17.621 2.345l0.261 0.048c0.116 0.021 0.183-0.016 0.2-0.111s-0.032-0.154-0.148-0.175l-0.261-0.048-0.052 0.286zM17.839 2.981c0.119 0.022 0.188-0.018 0.206-0.119 0.018-0.098-0.033-0.158-0.151-0.18l-0.323-0.059-0.055 0.299 0.323 0.059z"></path>
<path fill="#fff" style="fill: var(--color5, #fff)" d="M19.523 3.691c-0.151-0.039-0.279-0.106-0.384-0.201-0.103-0.095-0.175-0.207-0.216-0.338-0.039-0.13-0.040-0.266-0.004-0.408s0.103-0.26 0.2-0.356c0.098-0.095 0.216-0.159 0.352-0.193 0.138-0.033 0.282-0.030 0.433 0.009s0.278 0.106 0.382 0.2c0.105 0.095 0.177 0.208 0.216 0.338 0.040 0.131 0.042 0.267 0.006 0.409s-0.104 0.26-0.202 0.355c-0.097 0.095-0.214 0.16-0.352 0.193-0.136 0.033-0.28 0.030-0.431-0.008zM19.609 3.356c0.072 0.018 0.142 0.018 0.209-0.001s0.126-0.055 0.176-0.107c0.050-0.054 0.085-0.121 0.106-0.201s0.022-0.155 0.003-0.225c-0.018-0.071-0.052-0.132-0.102-0.181s-0.111-0.083-0.183-0.101-0.142-0.018-0.209 0.001c-0.067 0.019-0.126 0.055-0.176 0.109-0.050 0.053-0.085 0.119-0.106 0.199s-0.022 0.156-0.004 0.227c0.018 0.070 0.052 0.13 0.102 0.179s0.111 0.083 0.183 0.101z"></path>
<path fill="#fff" style="fill: var(--color5, #fff)" d="M21.19 2.596l0.398 0.126-0.444 1.407-0.398-0.126 0.444-1.407zM21.212 2.479c-0.046-0.014-0.079-0.041-0.101-0.078-0.020-0.039-0.023-0.082-0.008-0.129s0.042-0.080 0.080-0.101c0.040-0.020 0.083-0.022 0.128-0.008s0.078 0.041 0.099 0.080c0.022 0.039 0.025 0.082 0.010 0.129s-0.042 0.080-0.082 0.1c-0.038 0.019-0.080 0.021-0.126 0.007zM21.638 2.614c-0.046-0.014-0.079-0.041-0.101-0.078-0.020-0.039-0.023-0.082-0.008-0.129s0.042-0.080 0.080-0.101c0.040-0.020 0.083-0.022 0.128-0.008s0.078 0.041 0.099 0.080c0.022 0.039 0.025 0.082 0.010 0.129s-0.042 0.080-0.082 0.1c-0.038 0.019-0.080 0.021-0.126 0.007z"></path>
<path fill="#fff" style="fill: var(--color5, #fff)" d="M21.71 4.029l0.419-0.282-0.11-0.491 0.331 0.132 0.12 0.495-0.429 0.278-0.331-0.132zM22.19 4.221l0.419-0.282-0.11-0.491 0.331 0.132 0.12 0.495-0.429 0.278-0.331-0.132z"></path>
<path fill="#fff" style="fill: var(--color5, #fff)" d="M12.612 28.944h0.417v1.475h-0.417v-1.475z"></path>
<path fill="#fff" style="fill: var(--color5, #fff)" d="M2.182 7.827c-0.109-0.103-0.178-0.271-0.176-0.466 0.002-0.259 0.129-0.49 0.306-0.593 0.12 0.122 0.179 0.341 0.14 0.586-0.027 0.166-0.094 0.316-0.184 0.429-0.002 0.048-0.007 0.13-0.014 0.245-0.006 0.087-0.012 0.194-0.020 0.318 0.043-0.063 0.096-0.124 0.159-0.179 0.133-0.117 0.284-0.189 0.422-0.21 0.030 0.164-0.042 0.36-0.201 0.5-0.119 0.105-0.262 0.158-0.393 0.157-0.014 0.265-0.027 0.585-0.037 0.956 0.056-0.078 0.127-0.152 0.21-0.219 0.164-0.132 0.348-0.208 0.513-0.226 0.026 0.197-0.070 0.425-0.268 0.583-0.143 0.114-0.309 0.169-0.461 0.165-0.005 0.315-0.007 0.662-0.004 1.036 0.060-0.102 0.141-0.202 0.242-0.291 0.17-0.15 0.364-0.242 0.541-0.27 0.039 0.211-0.054 0.462-0.258 0.642-0.157 0.139-0.347 0.207-0.52 0.201-0 0-0.001 0-0.001 0 0.006 0.335 0.016 0.69 0.032 1.063 0.057-0.086 0.129-0.168 0.214-0.244 0.174-0.154 0.372-0.247 0.552-0.275 0.039 0.215-0.055 0.471-0.264 0.656-0.147 0.13-0.322 0.199-0.486 0.205 0.006 0.115 0.012 0.232 0.020 0.351 0.022 0.36 0.042 0.694 0.062 1.008 0.058-0.141 0.151-0.282 0.276-0.41 0.177-0.181 0.385-0.299 0.579-0.344 0.060 0.231-0.022 0.518-0.235 0.735-0.164 0.168-0.37 0.259-0.563 0.267-0.013 0.003-0.027 0.006-0.040 0.008 0.031 0.458 0.064 0.873 0.105 1.263 0.058-0.115 0.138-0.228 0.24-0.332 0.177-0.181 0.385-0.299 0.579-0.344 0.060 0.231-0.022 0.518-0.235 0.735-0.159 0.163-0.359 0.254-0.548 0.266 0.046 0.381 0.101 0.741 0.172 1.098 0.041-0.126 0.107-0.254 0.196-0.376 0.15-0.204 0.34-0.35 0.526-0.421 0.092 0.221 0.050 0.516-0.13 0.761-0.139 0.188-0.33 0.307-0.519 0.342-0.002 0.001-0.005 0.002-0.007 0.003 0.086 0.381 0.191 0.767 0.324 1.178 0.041-0.117 0.104-0.236 0.187-0.349 0.15-0.204 0.34-0.35 0.526-0.421 0.092 0.221 0.050 0.516-0.13 0.761-0.128 0.173-0.3 0.288-0.475 0.332 0.092 0.268 0.196 0.548 0.313 0.846l-0.078 0.031c-0.118-0.301-0.223-0.584-0.316-0.854-0.197 0.063-0.442 0.036-0.662-0.091-0.263-0.152-0.42-0.405-0.425-0.644 0.199-0.009 0.431 0.048 0.651 0.174 0.136 0.078 0.252 0.174 0.342 0.278-0.138-0.426-0.248-0.823-0.337-1.216-0.187 0.043-0.409 0.011-0.611-0.105-0.263-0.152-0.42-0.405-0.425-0.644 0.199-0.009 0.431 0.048 0.651 0.174 0.124 0.071 0.231 0.157 0.317 0.25-0.071-0.357-0.126-0.715-0.171-1.094-0.196 0.024-0.421-0.038-0.612-0.186-0.24-0.187-0.36-0.46-0.332-0.697 0.198 0.018 0.42 0.107 0.62 0.263 0.117 0.091 0.214 0.196 0.288 0.304-0.041-0.394-0.075-0.814-0.106-1.277-0.182 0.007-0.383-0.056-0.556-0.191-0.24-0.187-0.36-0.46-0.332-0.697 0.198 0.018 0.42 0.107 0.62 0.263 0.094 0.074 0.176 0.156 0.242 0.241-0.018-0.278-0.035-0.572-0.054-0.885-0.007-0.119-0.014-0.236-0.020-0.351-0.187 0.017-0.399-0.055-0.571-0.21-0.206-0.187-0.298-0.444-0.256-0.659 0.18 0.030 0.377 0.126 0.549 0.282 0.115 0.104 0.205 0.222 0.266 0.342-0.019-0.408-0.030-0.795-0.036-1.158-0.171 0.002-0.359-0.068-0.513-0.208-0.202-0.183-0.292-0.435-0.251-0.645 0.176 0.030 0.369 0.124 0.537 0.276 0.091 0.082 0.165 0.172 0.222 0.265-0.003-0.365-0.001-0.704 0.004-1.013-0.165 0.001-0.346-0.073-0.489-0.215-0.179-0.178-0.251-0.415-0.204-0.608 0.162 0.035 0.336 0.131 0.486 0.279 0.091 0.091 0.163 0.191 0.213 0.292 0.009-0.39 0.023-0.726 0.037-1.003-0.132-0-0.275-0.055-0.393-0.162-0.158-0.143-0.227-0.339-0.195-0.503 0.137 0.023 0.288 0.096 0.419 0.215 0.075 0.068 0.136 0.144 0.182 0.222 0.009-0.15 0.017-0.276 0.023-0.376 0.005-0.079 0.009-0.142 0.012-0.188z"></path>
<path fill="#fff" style="fill: var(--color5, #fff)" d="M23.817 7.043c0.092-0.008 0.19-0.017 0.197 0.058 0.007 0.077-0.164 0.14-0.305 0.192-0.102 0.038-0.188 0.070-0.181 0.097 0.005 0.021 0.053 0.011 0.11 0 0.089-0.017 0.2-0.039 0.205 0.042 0.005 0.088-0.257 0.145-0.416 0.18-0.068 0.015-0.117 0.026-0.118 0.033-0.001 0.014 0.037 0.031 0.073 0.047 0.032 0.014 0.063 0.028 0.060 0.038-0.017 0.072-0.28 0.1-0.44 0.118-0.016 0.002-0.031 0.003-0.045 0.005-0.025 0.034-0.048 0.062-0.048 0.062l-0.037 0.045c0 0-0.033 0.040-0.069 0.077s-0.076 0.072-0.084 0.063c-0.010-0.009 0.020-0.050 0.050-0.090s0.063-0.079 0.063-0.079l0.037-0.045c0 0 0.023-0.029 0.052-0.061-0.020-0.099-0.078-0.406-0.047-0.438 0.036-0.038 0.12 0.083 0.12 0.083s-0.107-0.443-0.022-0.475c0.039-0.015 0.074 0.043 0.108 0.1 0.031 0.053 0.062 0.105 0.096 0.099 0.025-0.004 0.009-0.098-0.010-0.21-0.027-0.158-0.059-0.35 0.008-0.374 0.081-0.029 0.132 0.081 0.169 0.162 0.020 0.043 0.036 0.078 0.050 0.077 0.050-0.003 0.058-0.115 0.065-0.217 0.006-0.084 0.012-0.162 0.039-0.17 0.034-0.010 0.051 0.018 0.066 0.043 0.012 0.020 0.024 0.039 0.043 0.036 0.016-0.003 0.038-0.024 0.062-0.048 0.038-0.038 0.081-0.081 0.117-0.061 0.030 0.017 0.023 0.064 0.015 0.108-0.006 0.040-0.013 0.078 0.010 0.088 0.014 0.006 0.030 0.009 0.045 0.012 0.038 0.008 0.077 0.016 0.092 0.065 0.012 0.038-0.083 0.126-0.165 0.202-0.069 0.064-0.128 0.119-0.109 0.13 0.030 0.016 0.086 0.011 0.145 0.006z"></path>
<path fill="#fff" style="fill: var(--color5, #fff)" d="M23.826 8.911c0.092-0.008 0.19-0.017 0.197 0.058 0.007 0.077-0.164 0.14-0.305 0.192-0.102 0.038-0.188 0.070-0.181 0.097 0.005 0.021 0.053 0.011 0.11 0 0.089-0.017 0.2-0.039 0.205 0.042 0.005 0.088-0.257 0.145-0.416 0.18-0.068 0.015-0.117 0.026-0.118 0.033-0.001 0.014 0.037 0.031 0.073 0.047 0.032 0.014 0.062 0.028 0.060 0.038-0.017 0.072-0.28 0.1-0.44 0.118-0.016 0.002-0.031 0.003-0.045 0.005-0.025 0.034-0.048 0.062-0.048 0.062l-0.037 0.045c0 0-0.033 0.040-0.069 0.077s-0.076 0.072-0.084 0.063c-0.010-0.009 0.020-0.050 0.050-0.090s0.063-0.079 0.063-0.079l0.037-0.045c0 0 0.023-0.029 0.051-0.061-0.020-0.099-0.078-0.406-0.047-0.438 0.036-0.038 0.12 0.083 0.12 0.083s-0.107-0.443-0.022-0.475c0.039-0.015 0.074 0.043 0.108 0.1 0.031 0.053 0.062 0.105 0.096 0.099 0.025-0.004 0.009-0.099-0.010-0.21-0.026-0.158-0.059-0.35 0.008-0.374 0.081-0.029 0.132 0.081 0.169 0.161 0.020 0.043 0.036 0.078 0.050 0.077 0.050-0.003 0.058-0.115 0.065-0.217 0.006-0.084 0.012-0.162 0.039-0.17 0.034-0.010 0.051 0.018 0.066 0.043 0.012 0.020 0.024 0.039 0.043 0.036 0.016-0.003 0.038-0.024 0.062-0.048 0.038-0.038 0.081-0.081 0.117-0.061 0.030 0.017 0.023 0.064 0.015 0.108-0.007 0.040-0.013 0.078 0.010 0.088 0.014 0.006 0.030 0.009 0.045 0.012 0.038 0.008 0.077 0.016 0.092 0.065 0.012 0.038-0.083 0.126-0.165 0.202-0.069 0.064-0.128 0.119-0.109 0.13 0.030 0.016 0.086 0.011 0.145 0.006z"></path>
<path fill="#fff" style="fill: var(--color5, #fff)" d="M23.806 10.776c0.092-0.008 0.19-0.017 0.197 0.058 0.007 0.077-0.164 0.14-0.305 0.192-0.102 0.038-0.188 0.070-0.181 0.097 0.005 0.021 0.053 0.011 0.11 0 0.089-0.017 0.2-0.039 0.205 0.042 0.005 0.088-0.257 0.145-0.416 0.18-0.068 0.015-0.117 0.026-0.118 0.033-0.001 0.014 0.037 0.031 0.073 0.047 0.032 0.014 0.062 0.028 0.060 0.038-0.017 0.072-0.28 0.1-0.44 0.118-0.016 0.002-0.031 0.003-0.045 0.005-0.025 0.034-0.048 0.062-0.048 0.062l-0.037 0.045c0 0-0.033 0.040-0.069 0.077s-0.076 0.072-0.084 0.063c-0.010-0.009 0.020-0.050 0.050-0.090s0.063-0.079 0.063-0.079l0.037-0.045c0 0 0.023-0.029 0.051-0.061-0.020-0.099-0.078-0.406-0.047-0.438 0.036-0.038 0.12 0.083 0.12 0.083s-0.107-0.443-0.022-0.475c0.039-0.015 0.074 0.043 0.108 0.1 0.031 0.053 0.062 0.105 0.096 0.099 0.025-0.004 0.009-0.098-0.010-0.21-0.026-0.158-0.059-0.35 0.008-0.374 0.081-0.029 0.132 0.081 0.169 0.162 0.020 0.043 0.036 0.078 0.050 0.077 0.050-0.003 0.058-0.115 0.065-0.217 0.006-0.084 0.012-0.162 0.039-0.17 0.034-0.010 0.051 0.018 0.066 0.043 0.012 0.020 0.024 0.039 0.043 0.036 0.016-0.003 0.038-0.024 0.062-0.048 0.038-0.038 0.081-0.081 0.117-0.061 0.030 0.017 0.023 0.064 0.015 0.108-0.007 0.040-0.013 0.078 0.010 0.088 0.014 0.006 0.029 0.009 0.045 0.012 0.038 0.008 0.077 0.016 0.092 0.065 0.012 0.038-0.083 0.126-0.165 0.202-0.069 0.064-0.128 0.119-0.109 0.13 0.030 0.016 0.086 0.011 0.145 0.006z"></path>
<path fill="#fff" style="fill: var(--color5, #fff)" d="M23.741 12.604c0.092-0.008 0.19-0.017 0.197 0.058 0.007 0.077-0.164 0.14-0.305 0.192-0.102 0.038-0.188 0.070-0.181 0.097 0.005 0.021 0.053 0.011 0.11 0 0.089-0.017 0.2-0.039 0.205 0.042 0.005 0.088-0.257 0.145-0.416 0.18-0.068 0.015-0.117 0.026-0.118 0.033-0.001 0.014 0.037 0.031 0.073 0.047 0.032 0.014 0.062 0.028 0.060 0.038-0.017 0.072-0.28 0.1-0.44 0.118-0.016 0.002-0.031 0.003-0.045 0.005-0.025 0.034-0.048 0.062-0.048 0.062l-0.037 0.045c0 0-0.033 0.040-0.069 0.077s-0.076 0.072-0.084 0.063c-0.009-0.009 0.020-0.050 0.050-0.090s0.063-0.079 0.063-0.079l0.037-0.045c0 0 0.023-0.029 0.051-0.061-0.020-0.099-0.078-0.406-0.047-0.438 0.036-0.038 0.12 0.083 0.12 0.083s-0.107-0.443-0.022-0.475c0.039-0.015 0.074 0.043 0.108 0.1 0.031 0.053 0.062 0.105 0.096 0.099 0.025-0.004 0.009-0.098-0.010-0.21-0.026-0.158-0.059-0.35 0.008-0.374 0.081-0.029 0.132 0.081 0.169 0.162 0.020 0.043 0.036 0.078 0.050 0.077 0.050-0.003 0.058-0.115 0.065-0.217 0.006-0.084 0.012-0.162 0.039-0.17 0.034-0.010 0.051 0.018 0.066 0.043 0.012 0.020 0.024 0.039 0.043 0.036 0.016-0.003 0.038-0.024 0.062-0.048 0.038-0.038 0.081-0.081 0.117-0.061 0.030 0.017 0.023 0.064 0.015 0.108-0.007 0.040-0.013 0.078 0.010 0.088 0.014 0.006 0.030 0.009 0.045 0.012 0.038 0.008 0.077 0.016 0.092 0.065 0.012 0.038-0.083 0.126-0.165 0.202-0.069 0.064-0.128 0.119-0.109 0.13 0.030 0.016 0.086 0.011 0.145 0.006z"></path>
<path fill="#fff" style="fill: var(--color5, #fff)" d="M23.602 14.507c0.092-0.008 0.19-0.017 0.197 0.058 0.007 0.077-0.164 0.14-0.305 0.192-0.102 0.038-0.188 0.070-0.181 0.097 0.005 0.021 0.053 0.011 0.11 0 0.089-0.017 0.2-0.039 0.205 0.042 0.005 0.088-0.257 0.145-0.416 0.18-0.068 0.015-0.117 0.026-0.118 0.033-0.001 0.014 0.037 0.031 0.073 0.047 0.032 0.014 0.062 0.028 0.060 0.038-0.017 0.072-0.28 0.1-0.44 0.118-0.016 0.002-0.031 0.003-0.045 0.005-0.025 0.034-0.048 0.062-0.048 0.062l-0.037 0.045c0 0-0.033 0.040-0.069 0.078s-0.076 0.072-0.084 0.063c-0.010-0.009 0.020-0.050 0.050-0.090s0.063-0.079 0.063-0.079l0.037-0.045c0 0 0.023-0.029 0.051-0.061-0.020-0.099-0.078-0.406-0.047-0.438 0.036-0.038 0.12 0.083 0.12 0.083s-0.107-0.443-0.022-0.475c0.039-0.015 0.074 0.043 0.108 0.1 0.031 0.053 0.062 0.105 0.096 0.099 0.025-0.004 0.009-0.099-0.010-0.21-0.026-0.158-0.059-0.35 0.008-0.374 0.081-0.029 0.132 0.081 0.169 0.161 0.020 0.043 0.036 0.078 0.050 0.077 0.050-0.003 0.058-0.115 0.065-0.217 0.006-0.084 0.012-0.162 0.039-0.17 0.034-0.010 0.051 0.018 0.066 0.043 0.012 0.020 0.024 0.039 0.043 0.036 0.016-0.003 0.038-0.024 0.062-0.048 0.038-0.038 0.081-0.081 0.117-0.061 0.030 0.017 0.023 0.064 0.015 0.108-0.007 0.040-0.013 0.078 0.010 0.088 0.014 0.006 0.030 0.009 0.045 0.012 0.038 0.008 0.077 0.016 0.092 0.065 0.012 0.038-0.083 0.126-0.165 0.202-0.069 0.064-0.128 0.119-0.109 0.13 0.030 0.016 0.086 0.011 0.145 0.006z"></path>
<path fill="#fff" style="fill: var(--color5, #fff)" d="M23.367 16.36c0.092-0.008 0.19-0.017 0.197 0.058 0.007 0.077-0.164 0.14-0.305 0.192-0.102 0.038-0.188 0.070-0.181 0.097 0.005 0.021 0.053 0.011 0.11 0 0.089-0.017 0.2-0.039 0.205 0.042 0.005 0.088-0.257 0.145-0.416 0.18-0.068 0.015-0.117 0.026-0.118 0.033-0.001 0.014 0.037 0.031 0.073 0.047 0.032 0.014 0.063 0.028 0.060 0.038-0.017 0.072-0.28 0.1-0.44 0.118-0.016 0.002-0.031 0.003-0.045 0.005-0.025 0.034-0.048 0.062-0.048 0.062l-0.037 0.045c0 0-0.033 0.040-0.069 0.077s-0.076 0.072-0.084 0.063c-0.009-0.009 0.020-0.050 0.050-0.090s0.063-0.079 0.063-0.079l0.037-0.045c0 0 0.023-0.029 0.051-0.061-0.020-0.099-0.078-0.406-0.047-0.438 0.036-0.038 0.12 0.083 0.12 0.083s-0.107-0.443-0.022-0.475c0.039-0.015 0.074 0.043 0.108 0.1 0.031 0.053 0.062 0.105 0.096 0.099 0.025-0.004 0.009-0.099-0.010-0.21-0.026-0.158-0.059-0.35 0.008-0.374 0.081-0.029 0.132 0.081 0.169 0.162 0.020 0.043 0.036 0.078 0.050 0.077 0.050-0.003 0.058-0.115 0.065-0.217 0.006-0.084 0.012-0.162 0.039-0.17 0.034-0.010 0.051 0.018 0.066 0.043 0.012 0.020 0.024 0.039 0.043 0.036 0.016-0.003 0.038-0.024 0.062-0.048 0.038-0.038 0.081-0.081 0.117-0.061 0.030 0.017 0.023 0.064 0.015 0.108-0.007 0.040-0.013 0.078 0.010 0.088 0.014 0.006 0.030 0.009 0.045 0.012 0.038 0.008 0.077 0.016 0.092 0.065 0.012 0.038-0.083 0.126-0.165 0.202-0.069 0.064-0.128 0.119-0.109 0.13 0.030 0.016 0.086 0.011 0.145 0.006z"></path>
<path fill="#fff" style="fill: var(--color5, #fff)" d="M23.018 18.183c0.092-0.008 0.19-0.017 0.197 0.058 0.007 0.077-0.164 0.14-0.305 0.192-0.102 0.038-0.188 0.070-0.181 0.097 0.005 0.021 0.053 0.011 0.11 0 0.089-0.017 0.2-0.039 0.205 0.042 0.005 0.088-0.257 0.145-0.416 0.18-0.068 0.015-0.117 0.026-0.118 0.033-0.001 0.014 0.037 0.031 0.073 0.047 0.032 0.014 0.063 0.028 0.060 0.038-0.017 0.072-0.28 0.1-0.44 0.118-0.016 0.002-0.031 0.003-0.045 0.005-0.025 0.034-0.048 0.062-0.048 0.062l-0.037 0.045c0 0-0.033 0.040-0.069 0.077s-0.076 0.072-0.084 0.063c-0.009-0.009 0.020-0.050 0.050-0.090s0.063-0.079 0.063-0.079l0.037-0.045c0 0 0.023-0.029 0.051-0.061-0.020-0.099-0.078-0.406-0.047-0.438 0.036-0.038 0.12 0.083 0.12 0.083s-0.107-0.443-0.022-0.475c0.039-0.015 0.074 0.043 0.108 0.1 0.031 0.053 0.062 0.105 0.096 0.099 0.025-0.004 0.009-0.098-0.010-0.21-0.027-0.158-0.059-0.35 0.008-0.374 0.081-0.029 0.132 0.081 0.169 0.162 0.020 0.043 0.036 0.078 0.050 0.077 0.050-0.003 0.058-0.115 0.065-0.217 0.006-0.084 0.012-0.162 0.039-0.17 0.034-0.010 0.051 0.018 0.066 0.043 0.012 0.020 0.024 0.039 0.043 0.036 0.016-0.003 0.038-0.024 0.062-0.048 0.038-0.038 0.081-0.081 0.117-0.061 0.030 0.017 0.023 0.064 0.015 0.108-0.007 0.040-0.013 0.078 0.010 0.088 0.014 0.006 0.030 0.009 0.045 0.012 0.038 0.008 0.077 0.016 0.092 0.065 0.012 0.038-0.083 0.126-0.165 0.202-0.069 0.064-0.128 0.119-0.109 0.13 0.030 0.016 0.086 0.011 0.145 0.006z"></path>
<path fill="#fff" style="fill: var(--color5, #fff)" d="M6.261 23.6l-1.236 0.806-0.224-0.344 0.42-0.274c-0.094-0.075-0.167-0.152-0.219-0.232-0.113-0.173-0.158-0.332-0.135-0.478 0.024-0.145 0.115-0.269 0.272-0.371l0.38-0.248 0.224 0.344-0.341 0.222c-0.159 0.104-0.188 0.233-0.086 0.388 0.055 0.085 0.117 0.149 0.185 0.191l0.537-0.35 0.224 0.344z"></path>
<path fill="#fff" style="fill: var(--color5, #fff)" d="M6.426 25.65l-0.247 0.208-0.763-0.906 1.128-0.951 0.746 0.885-0.247 0.208-0.479-0.569-0.19 0.16 0.422 0.501-0.239 0.201-0.422-0.501-0.206 0.174 0.497 0.59z"></path>
<path fill="#fff" style="fill: var(--color5, #fff)" d="M7.073 26.808c-0.112-0.106-0.191-0.226-0.236-0.358-0.043-0.132-0.050-0.265-0.021-0.398s0.095-0.253 0.196-0.36c0.102-0.107 0.218-0.179 0.349-0.215s0.263-0.036 0.397 0.002c0.135 0.037 0.259 0.109 0.371 0.216 0.098 0.093 0.17 0.194 0.215 0.303s0.063 0.221 0.053 0.336l-0.358-0.009c0.010-0.149-0.034-0.271-0.133-0.365-0.058-0.055-0.122-0.092-0.192-0.11-0.069-0.017-0.139-0.014-0.208 0.008-0.068 0.023-0.131 0.064-0.188 0.124s-0.096 0.125-0.116 0.195c-0.018 0.070-0.017 0.139 0.004 0.207 0.022 0.069 0.062 0.131 0.12 0.186 0.099 0.094 0.223 0.132 0.371 0.114l0.027 0.357c-0.114 0.016-0.227 0.004-0.338-0.036s-0.216-0.106-0.314-0.199z"></path>
<path fill="#fff" style="fill: var(--color5, #fff)" d="M9.606 27.426l-0.353-0.281-0.713 0.895-0.321-0.256 0.713-0.895-0.354-0.282 0.206-0.259 1.029 0.82-0.206 0.259z"></path>
<path fill="#fff" style="fill: var(--color5, #fff)" d="M10.496 28.24c0.149 0.104 0.24 0.217 0.274 0.34 0.035 0.122 0.007 0.248-0.084 0.378-0.097 0.139-0.217 0.214-0.358 0.225s-0.292-0.040-0.452-0.151l-0.572-0.4 0.845-1.209 0.337 0.235-0.269 0.385 0.28 0.196zM10.024 28.772c0.058 0.040 0.114 0.056 0.169 0.049 0.056-0.007 0.104-0.039 0.144-0.095 0.073-0.105 0.047-0.201-0.078-0.289l-0.212-0.149-0.234 0.335 0.212 0.148z"></path>
<path fill="#fff" style="fill: var(--color5, #fff)" d="M15.882 28.908c-0.126 0.090-0.258 0.145-0.396 0.164-0.138 0.018-0.269-0.001-0.394-0.055s-0.23-0.141-0.316-0.261c-0.086-0.12-0.134-0.248-0.145-0.384s0.015-0.265 0.076-0.389c0.062-0.126 0.156-0.234 0.282-0.324 0.11-0.078 0.222-0.13 0.338-0.154s0.229-0.020 0.34 0.011l-0.076 0.35c-0.145-0.038-0.273-0.017-0.383 0.062-0.065 0.047-0.113 0.103-0.144 0.168-0.030 0.065-0.040 0.133-0.031 0.206 0.009 0.071 0.038 0.14 0.086 0.208s0.105 0.118 0.17 0.15c0.065 0.031 0.133 0.043 0.204 0.035 0.072-0.008 0.14-0.036 0.206-0.082 0.111-0.079 0.172-0.194 0.182-0.343l0.356 0.041c-0.006 0.115-0.039 0.223-0.099 0.325s-0.145 0.192-0.255 0.271z"></path>
<path fill="#fff" style="fill: var(--color5, #fff)" d="M15.875 27.059l0.315-0.264 0.556 0.664-0.089-1.055 0.301-0.252 0.948 1.131-0.315 0.264-0.555-0.662 0.090 1.052-0.302 0.253-0.948-1.131z"></path>
<path fill="#fff" style="fill: var(--color5, #fff)" d="M18.298 24.823l1.065 1.021-0.285 0.297-0.826-0.792-0.293 0.306 0.168 0.172c0.147 0.151 0.259 0.282 0.335 0.394s0.119 0.215 0.126 0.313c0.006 0.097-0.033 0.19-0.116 0.277-0.039 0.041-0.089 0.080-0.15 0.119l-0.23-0.253c0.016-0.010 0.030-0.023 0.044-0.037 0.038-0.040 0.051-0.085 0.040-0.136s-0.040-0.108-0.087-0.171c-0.048-0.064-0.116-0.14-0.203-0.23l-0.41-0.422 0.823-0.858z"></path>
<path fill="#fff" style="fill: var(--color5, #fff)" d="M20.188 24.343l-0.367 0.504 0.163 0.262-0.251 0.344-0.809-1.395 0.242-0.332 1.577 0.341-0.256 0.351-0.3-0.075zM19.867 24.261l-0.493-0.125 0.27 0.431 0.223-0.307z"></path>
</symbol>
<symbol id="menu" viewBox="0 0 20 20">
<path d="M0 3h20v2h-20v-2zM0 9h20v2h-20v-2zM0 15h20v2h-20v-2z"></path>
</symbol>
<symbol id="icon-modal-close" viewBox="0 0 32 32">
<path d="M32 3.223l-3.223-3.223-12.777 12.777-12.777-12.777-3.223 3.223 12.777 12.777-12.777 12.777 3.223 3.223 12.777-12.777 12.777 12.777 3.223-3.223-12.777-12.777 12.777-12.777z"></path>
</symbol>
</defs>
</svg>
